<mxfile host="app.diagrams.net" modified="2020-07-17T07:30:06.048Z" agent="5.0 (Windows NT 10.0; Win64; x64) AppleWebKit/537.36 (KHTML, like Gecko) Chrome/83.0.4103.116 Safari/537.36 Edg/83.0.478.64" etag="WC7akzhQiTtrgf_IZU0T" version="13.4.4" type="github">
  <diagram id="jo3HrdEAMuOPyR-helGk" name="Page-1">
    <mxGraphModel dx="1221" dy="682" grid="1" gridSize="10" guides="1" tooltips="1" connect="1" arrows="1" fold="1" page="1" pageScale="1" pageWidth="850" pageHeight="1100" math="0" shadow="0">
      <root>
        <mxCell id="0" />
        <mxCell id="1" parent="0" />
        <mxCell id="8-XLzQYcNY0egARbly4J-3" style="edgeStyle=orthogonalEdgeStyle;rounded=0;orthogonalLoop=1;jettySize=auto;html=1;entryX=0.5;entryY=0;entryDx=0;entryDy=0;" edge="1" parent="1" source="8-XLzQYcNY0egARbly4J-1" target="8-XLzQYcNY0egARbly4J-2">
          <mxGeometry relative="1" as="geometry" />
        </mxCell>
        <mxCell id="8-XLzQYcNY0egARbly4J-1" value="โหลด python3.7-slim" style="shape=step;perimeter=stepPerimeter;whiteSpace=wrap;html=1;fixedSize=1;" vertex="1" parent="1">
          <mxGeometry x="313" y="120" width="225" height="80" as="geometry" />
        </mxCell>
        <mxCell id="8-XLzQYcNY0egARbly4J-5" style="edgeStyle=orthogonalEdgeStyle;rounded=0;orthogonalLoop=1;jettySize=auto;html=1;entryX=0.5;entryY=0;entryDx=0;entryDy=0;" edge="1" parent="1" source="8-XLzQYcNY0egARbly4J-2" target="8-XLzQYcNY0egARbly4J-4">
          <mxGeometry relative="1" as="geometry" />
        </mxCell>
        <mxCell id="8-XLzQYcNY0egARbly4J-2" value="กำหนด port ของ container&lt;br&gt;ที่จะให้ภายนอกเรียกใช้งาน" style="shape=step;perimeter=stepPerimeter;whiteSpace=wrap;html=1;fixedSize=1;" vertex="1" parent="1">
          <mxGeometry x="313" y="240" width="225" height="80" as="geometry" />
        </mxCell>
        <mxCell id="8-XLzQYcNY0egARbly4J-7" style="edgeStyle=orthogonalEdgeStyle;rounded=0;orthogonalLoop=1;jettySize=auto;html=1;exitX=0.5;exitY=1;exitDx=0;exitDy=0;entryX=0.5;entryY=0;entryDx=0;entryDy=0;" edge="1" parent="1" source="8-XLzQYcNY0egARbly4J-4" target="8-XLzQYcNY0egARbly4J-6">
          <mxGeometry relative="1" as="geometry" />
        </mxCell>
        <mxCell id="8-XLzQYcNY0egARbly4J-4" value="กำหนด path ที่ใช้ในการเก็บ&lt;br&gt;โฟล์เดอร์หรือไฟล์ที่ถูกสร้างขึ้นโดย &lt;br&gt;docker container ในที่นี้กำหนด&lt;br&gt;เป็นโฟล์เดอร์ app" style="shape=step;perimeter=stepPerimeter;whiteSpace=wrap;html=1;fixedSize=1;" vertex="1" parent="1">
          <mxGeometry x="313" y="360" width="225" height="80" as="geometry" />
        </mxCell>
        <mxCell id="8-XLzQYcNY0egARbly4J-6" value="ทำการคัดลอกโฟล์เดอร์และไฟล์&lt;br&gt;ที่ถูกสร้างขึ้นจากเครื่องไปไว้ใน&lt;br&gt;ขั้นตอนก่อนหน้า" style="shape=step;perimeter=stepPerimeter;whiteSpace=wrap;html=1;fixedSize=1;" vertex="1" parent="1">
          <mxGeometry x="313" y="490" width="225" height="80" as="geometry" />
        </mxCell>
      </root>
    </mxGraphModel>
  </diagram>
</mxfile>
